<svg xmlns="http://www.w3.org/2000/svg" viewBox="0 0 24 24" fill="currentColor">
  <!-- Game controller body -->
  <path d="M17.5 6C19.43 6 21 7.57 21 9.5c0 .88-.33 1.68-.87 2.3L18.5 14c-.33.66-1 1-1.7 1H16c-.55 0-1-.45-1-1v-1.5c0-.28-.22-.5-.5-.5s-.5.22-.5.5V14c0 .55-.45 1-1 1H7.2c-.7 0-1.37-.34-1.7-1L4.87 11.8C4.33 11.18 4 10.38 4 9.5 4 7.57 5.57 6 7.5 6h10z"/>
  
  <!-- Left analog stick -->
  <circle cx="8" cy="10" r="1.5" fill="currentColor"/>
  
  <!-- Right buttons -->
  <circle cx="16" cy="9" r="0.8" fill="currentColor"/>
  <circle cx="18" cy="11" r="0.8" fill="currentColor"/>
  
  <!-- D-pad -->
  <rect x="9.5" y="8.5" width="1" height="3" fill="currentColor"/>
  <rect x="8.5" y="9.5" width="3" height="1" fill="currentColor"/>
</svg>
